<svg xmlns="http://www.w3.org/2000/svg" xmlns:xlink="http://www.w3.org/1999/xlink" width="200" zoomAndPan="magnify" viewBox="0 0 150 149.999998" height="200" preserveAspectRatio="xMidYMid meet" version="1.0"><path fill="#ea5212" d="M 55.878906 69.175781 L 60.605469 75.011719 L 55.878906 80.835938 L 0 75.035156 Z M 55.878906 69.175781 " fill-opacity="1" fill-rule="nonzero"/><path fill="#ea5212" d="M 74.917969 89.464844 L 80.824219 94.238281 L 75.035156 150 L 69.175781 94.121094 Z M 74.917969 89.464844 " fill-opacity="1" fill-rule="nonzero"/><path fill="#ea5212" d="M 75.035156 0 L 80.9375 55.683594 L 74.917969 60.546875 L 69.0625 55.796875 Z M 75.035156 0 " fill-opacity="1" fill-rule="nonzero"/><path fill="#ea5212" d="M 150 75.035156 L 94.316406 80.9375 L 89.523438 75.011719 L 94.316406 69.074219 Z M 150 75.035156 " fill-opacity="1" fill-rule="nonzero"/><path fill="#ea5212" d="M 74.910156 82.65625 L 115.097656 115.132812 L 82.722656 75 L 115.132812 34.902344 L 74.910156 67.34375 L 34.867188 34.902344 L 67.425781 75 L 34.902344 115.132812 Z M 74.910156 82.65625 " fill-opacity="1" fill-rule="nonzero"/><path fill="#ea5212" d="M 55.878906 69.175781 L 60.605469 75.011719 L 55.878906 80.835938 L 0 75.035156 Z M 55.878906 69.175781 " fill-opacity="1" fill-rule="nonzero"/><path fill="#ea5212" d="M 74.917969 89.464844 L 80.824219 94.238281 L 75.035156 150 L 69.175781 94.121094 Z M 74.917969 89.464844 " fill-opacity="1" fill-rule="nonzero"/><path fill="#ea5212" d="M 75.035156 0 L 80.9375 55.683594 L 74.917969 60.546875 L 69.0625 55.796875 Z M 75.035156 0 " fill-opacity="1" fill-rule="nonzero"/><path fill="#ea5212" d="M 150 75.035156 L 94.316406 80.9375 L 89.523438 75.011719 L 94.316406 69.074219 Z M 150 75.035156 " fill-opacity="1" fill-rule="nonzero"/><path fill="#ea5212" d="M 74.910156 82.65625 L 115.097656 115.132812 L 82.722656 75 L 115.132812 34.902344 L 74.910156 67.34375 L 34.867188 34.902344 L 67.425781 75 L 34.902344 115.132812 Z M 74.910156 82.65625 " fill-opacity="1" fill-rule="nonzero"/></svg>